<svg width="666" height="640" viewBox="0 0 666 640" fill="none" xmlns="http://www.w3.org/2000/svg">
<g clip-path="url(#clip0_2_1297)">
<rect width="666" height="640" fill="#35B8BE"/>
<path d="M307.498 566.144C304.168 563.009 301.368 559.939 298.111 557.389C288.746 550.085 284.319 539.757 278.728 530.134C276.216 525.817 276.934 520.965 277.042 516.292C277.063 515.482 278.253 514.695 278.946 513.846L282.089 519.695V511.041C283.931 510.407 285.68 509.553 287.292 508.501C287.977 507.967 288.8 507.615 289.678 507.481C290.555 507.347 291.455 507.435 292.284 507.737C294.088 508.446 295.771 509.402 297.279 510.575C296.648 514.911 297.799 519.311 300.498 522.875C302.603 522.339 305.087 523.747 307.196 521.712C307.578 521.499 308.011 521.378 308.455 521.359C308.899 521.34 309.341 521.425 309.742 521.605C314.903 524.543 321.241 526.081 323.853 532.083C324.321 533.167 324.841 534.565 325.785 535.045C327.207 535.77 325.931 538.032 328.373 538.121C330.381 538.192 329.098 540.122 329.458 541.17C329.989 542.446 330.422 543.755 330.756 545.089C330.883 546.345 330.899 547.608 330.804 548.867C325.848 553.078 322.058 558.364 319.763 564.266L307.501 566.147" fill="#2FACB2"/>
<path d="M139.451 320.909C136.582 322.744 133.817 324.586 130.935 326.242C130.657 326.402 129.655 325.448 128.573 324.736C128.049 325.77 127.444 326.766 126.762 327.714C125.872 328.663 124.931 329.567 123.942 330.424C122.048 332.263 120.22 334.31 117.421 331.515C117.206 331.303 116.553 331.515 116.113 331.469C112.967 331.143 109.966 331.887 106.803 329.51C103.939 327.823 101.203 325.952 98.613 323.91C96.2171 321.828 94.1496 319.434 92.4733 316.802C89.5839 312.8 88.2026 308.003 88.5502 303.175C89.0309 301.725 89.6947 300.334 90.5274 299.032L94.6899 302.255C95.786 298.833 95.5605 294.855 98.9287 291.838L103.133 294.787V290.176C107.331 289.078 111.651 288.444 116.005 288.286C118.358 288.325 120.616 289.161 122.367 290.64C124.685 292.267 126.795 294.14 128.656 296.224C130.182 298.385 132.267 300.191 133.859 302.428C136.009 306.222 137.825 310.175 139.291 314.248C139.808 316.437 139.862 318.701 139.451 320.909Z" fill="#2FACB2"/>
<path d="M-15.3632 510.581L-24.5797 501.905C-24.7131 499.553 -24.6737 497.196 -24.4617 494.849C-24.3299 493.944 -22.9389 493.027 -21.9053 492.494C-21.5133 492.289 -20.5178 493.148 -19.7685 493.53C-18.7903 491.708 -18.218 489.242 -14.9123 489.843C-14.2772 490.012 -13.5981 489.951 -13.0079 489.673C-12.3251 488.943 -11.4634 488.381 -10.4975 488.035C-9.5316 487.689 -8.49064 487.57 -7.46486 487.688C-3.55692 488.246 0.169094 489.62 3.4409 491.708C9.57253 496.257 14.4506 502.129 17.6628 508.828C19.4869 512.982 20.8808 517.293 21.8253 521.699C22.0575 522.833 21.945 524.005 21.5007 525.082C21.0564 526.158 20.2984 527.094 19.3139 527.783C15.4983 530.303 11.811 533.027 7.90517 535.423C6.49503 536.295 4.83183 536.732 3.14605 536.674C-1.53162 536.629 -6.04744 535.056 -9.62968 532.224C-13.2119 529.392 -15.6382 525.477 -16.494 521.148C-17.1874 519.726 -17.6022 518.198 -17.7185 516.638C-17.1686 514.544 -16.3777 512.513 -15.3597 510.581" fill="#2FACB2"/>
<path d="M409.954 444.093C410.131 442.924 410.301 441.755 410.506 440.465C410.995 440.792 411.428 440.932 411.546 441.19C413.532 445.064 415.167 449.088 416.434 453.22C417.072 455.891 417.884 458.444 415.137 460.531C413.267 461.948 415.164 466.02 410.957 465.791C408.973 468.792 405.795 468.491 402.753 468.286C402.221 470.229 401.55 472.136 400.745 473.994C399.735 475.953 396.509 476.514 393.051 475.584C392.26 475.371 391.497 474.65 390.775 474.709C385.173 475.169 385.184 475.208 382.825 471.048C381.532 469.037 380.36 466.96 379.315 464.825C378.839 463.587 378.085 462.46 377.105 461.521C376.125 460.582 374.942 459.852 373.636 459.381C371.625 458.586 369.863 457.319 368.518 455.703C367.173 454.086 366.289 452.172 365.95 450.144C365.701 448.262 366.009 446.352 366.838 444.624C367.667 442.896 368.986 441.416 370.65 440.348L376.571 447.633C376.571 444.57 376.536 442.509 376.571 440.449C376.606 438.389 376.852 438.816 380.293 437.36C382.756 436.318 386.318 437.582 387.733 434.372L395.018 434.111C399.503 433.945 403.482 434.405 405.57 439.097C406.771 440.951 408.249 442.634 409.958 444.093" fill="#2FACB2"/>
<path d="M427.225 660.08C419.556 657.105 416.257 651.59 412.979 646.202C410.071 641.479 407.521 636.569 405.348 631.508C403.197 626.454 399.475 621.67 401.137 615.312C405.993 618.496 405.587 624.579 410.245 628.648C409.392 622.228 405.844 617.242 404.075 610.473L408.497 612.759C408.698 611.639 408.927 610.473 409.142 609.33L415.539 608.188C416.167 609.131 416.989 610.525 417.967 611.815C421.783 616.841 421.783 616.818 428.72 619.133C429.487 619.425 430.217 619.795 430.898 620.236C436.429 623.103 440.995 627.371 444.08 632.556C445.46 635.042 446.313 637.757 446.591 640.55C446.681 641.136 446.974 641.677 447.424 642.091C447.637 642.264 447.799 642.487 447.894 642.737C447.989 642.987 448.012 643.256 447.963 643.517C447.914 643.778 447.793 644.023 447.613 644.227C447.432 644.431 447.198 644.587 446.934 644.681C443.91 646.287 442.602 649.445 439.917 651.335C439.428 651.734 439.036 652.227 438.767 652.781C438.499 653.334 438.36 653.936 438.36 654.545C437.874 655.632 437.067 656.566 436.036 657.236C435.005 657.906 433.791 658.284 432.539 658.326C431.45 658.088 430.746 656.207 429.265 657.595C428.521 658.38 427.833 659.21 427.204 660.08" fill="#2FACB2"/>
<path d="M209.256 512.433L205.149 513.086L206.8 515.995L196.848 525.366C196.227 525.312 195.603 525.312 194.982 525.366C187.434 526.673 182.404 522.65 178.214 517.784C174.894 513.954 172.114 509.736 169.941 505.236C168.194 502.421 167.618 499.095 168.324 495.904L174.704 509.066L175.793 508.739C175.706 507.924 175.531 507.119 175.272 506.336C173.909 503.277 172.355 500.295 171.068 497.21C170.499 495.845 169.275 494.147 172.39 493.513C173.351 493.317 173.913 491.368 174.645 490.215C175.286 489.203 175.907 488.178 176.417 487.361C179.563 487.09 179.594 489.68 181.554 490.748L180.042 485.344L183.736 482.584C184.586 483.378 185.71 484.645 186.754 482.31C187.888 479.789 189.564 478.806 192.259 480.462C192.505 480.612 193.015 480.73 193.178 480.602C196.321 478.166 198.17 480.602 199.623 482.457C202.71 487.097 205.124 492.105 206.803 497.347C207.292 498.542 208.357 501.344 204.778 501.481C204.576 501.481 204.431 502.535 204.243 503.113C204.989 503.283 206.134 503.825 206.418 503.557C206.615 503.276 206.907 503.066 207.248 502.961C207.588 502.856 207.956 502.863 208.291 502.981C208.627 503.098 208.91 503.319 209.094 503.608C209.279 503.897 209.354 504.236 209.308 504.57C208.101 507.237 210.896 509.817 209.249 512.449" fill="#2FACB2"/>
<path d="M184.895 377.232L187.67 379.845C187.888 378.052 188.072 376.579 188.273 374.963C191.048 374.418 193.896 373.729 196.796 373.33C198.569 373.082 200.372 373.082 202.145 373.33C203.477 373.526 202.433 375.864 204.92 376.067C206.526 376.201 207.761 378.767 208.902 380.557C209.832 382.01 208.441 385.151 211.965 384.965C212.085 387.02 212.208 389.077 212.333 391.136C212.352 391.337 212.382 391.536 212.423 391.734L222.423 401.148C223.518 401.077 224.618 401.087 225.711 401.177C227.383 401.432 229.18 402.989 228.323 403.956C226.419 406.104 229.832 407.59 228.48 409.343C224.967 410.688 221.107 411.013 217.397 410.277C218.458 412.436 219.381 414.317 220.54 416.684C219.863 417.294 218.972 418.783 218.094 418.78C212.544 418.741 206.713 420.063 201.77 416.361C200.325 415.492 198.984 414.478 197.771 413.337C195.395 410.535 193.261 407.544 191.097 404.589C190.028 403.133 189.116 401.572 188.089 400.083C186.511 397.797 186.983 394.48 184.069 392.834C184.068 390.238 183.27 387.698 181.769 385.52C181.375 384.786 181.143 383.985 181.087 383.165C181.031 382.344 181.153 381.522 181.445 380.747C181.737 379.972 182.193 379.261 182.785 378.657C183.377 378.053 184.094 377.568 184.891 377.232" fill="#2FACB2"/>
<path d="M-22.821 283.316H-16.6119C-14.2115 283.316 -11.6134 282.94 -11.0619 286.209C-10.928 286.452 -10.7301 286.658 -10.4872 286.809C-10.2442 286.959 -9.9644 287.048 -9.67441 287.068C-6.83004 286.669 -6.09467 289.2 -4.35335 290.313C0.36068 293.331 1.05443 298.307 2.24421 302.904C2.91715 305.517 2.01874 307.411 -1.15517 309.197C-4.7141 311.202 -9.16798 312.462 -11.6134 316.09C-13.771 316.129 -15.5366 319.306 -18.0549 316.762C-18.5649 316.404 -19.1965 316.233 -19.8309 316.282C-28.3224 316.436 -33.6331 311.845 -38.08 305.722C-40.7255 302.891 -42.7507 299.595 -44.0393 296.024C-44.3925 294.45 -44.6244 292.853 -44.7331 291.247C-44.7712 290.722 -44.4417 289.814 -44.0393 289.68C-40.6365 288.531 -38.1424 285.788 -34.8367 284.668C-30.9939 283.358 -26.8833 282.896 -22.821 283.316Z" fill="#2FACB2"/>
<path d="M-33.6122 590.643L-30.4904 595.257C-30.1747 593.05 -30.0533 592.296 -29.9631 591.538C-29.6717 589.027 -29.6787 589.03 -26.3071 588.707C-25.8839 588.665 -25.2352 588.707 -25.0861 588.495C-24.4686 587.483 -23.4948 586.706 -22.3332 586.298C-21.1716 585.89 -19.8951 585.877 -18.7244 586.261C-15.896 586.914 -13.2328 588.087 -10.8885 589.713C-3.02335 596.491 2.85123 605.064 6.16737 614.604C6.52247 616.404 6.55296 618.248 6.25756 620.057L3.68722 619.786C3.85719 622.072 3.3126 623.744 0.489033 624.279C-0.0175438 624.453 -0.471706 624.74 -0.83429 625.115C-1.19688 625.49 -1.457 625.943 -1.59222 626.435C-1.87666 629.171 -4.86325 627.839 -5.90388 629.262C-7.56888 626.771 -10.4132 629.788 -12.3002 628.005C-14.0936 626.301 -16.546 624.985 -17.7288 622.983C-20.4632 618.621 -22.6903 613.995 -24.3715 609.184C-24.624 608.109 -25.1036 607.092 -25.7817 606.194C-26.4598 605.297 -27.3227 604.537 -28.3189 603.959C-31.5459 602.31 -34.1358 599.742 -35.7178 596.622C-37.0463 593.906 -37.1053 593.932 -33.6122 590.643Z" fill="#2FACB2"/>
<path d="M92.5288 516.952C92.4408 516.191 92.4595 515.423 92.5843 514.666C92.73 514.141 93.6839 513.785 93.7706 513.278C93.8573 512.772 93.1844 512.103 93.1844 511.492C93.1844 510.96 93.9753 510.307 93.8192 509.915C93.4747 509.168 92.9325 508.516 92.2444 508.021C91.6003 507.724 90.9071 507.531 90.1943 507.453C90.6141 508.825 90.9505 509.932 91.2939 511.045C88.9005 509.68 86.2469 508.593 87.4228 505.305L90.5655 506.575C90.9505 502.634 87.0551 504.678 85.5532 502.807C87.7489 503.052 89.2127 501.628 91.4223 501.902C92.4629 502.029 93.7776 499.982 95.3489 498.581L102.828 504.328L103.549 500.188L113.442 498.389C115.176 500.456 116.508 502.343 118.146 503.966C119.568 505.37 121.521 506.304 122.891 507.744C126.399 511.928 128.863 516.801 130.099 522.003C130.668 523.819 131.296 526.689 127.612 527.176C127.612 530.506 123.897 531.006 122.214 533.115C121.009 534.401 119.371 535.258 117.575 535.543C115.779 535.828 113.933 535.525 112.346 534.683C106.817 532.156 102.053 528.359 98.4951 523.643C96.5664 521.481 94.4019 519.44 92.5288 516.955" fill="#2FACB2"/>
<path d="M203.449 599.117L206.786 600.185C207.029 594.856 201.18 593.36 200.365 588.456C201.36 588.762 202.315 589.173 203.213 589.68C204.427 590.69 205.585 591.758 206.682 592.88C206.544 590.958 205.683 589.145 204.254 587.767C207.813 583.724 207.813 583.724 211.975 583.724C213.994 586.482 216.421 588.954 219.183 591.065C222.434 592.936 223.391 596.126 225.774 598.415C227.967 600.806 229.768 603.492 231.116 606.385C232.061 607.929 232.503 609.701 232.385 611.479C232.038 613.517 231.116 616.511 229.586 617.089C227.068 618.043 227.633 619.718 226.839 621.161C226.395 622.23 225.68 623.181 224.757 623.931C223.834 624.681 222.73 625.207 221.542 625.465C219.95 625.709 218.056 626.852 216.887 626.359C213.956 625.233 211.283 623.587 209.013 621.51C205.087 617.478 201.442 613.211 198.1 608.736C197.264 607.626 197.66 605.677 197.406 603.479L199.939 605.399C199.446 602.167 202.447 601.06 203.449 599.114" fill="#2FACB2"/>
<path d="M121.819 407.737C124.133 407.881 125.732 406.758 127.851 408.191L125.145 409.07C125.94 411.61 126.824 414.131 127.473 416.707C127.639 417.36 127.272 418.666 126.779 418.862C124.098 419.933 123.265 422.673 121.163 424.178C120.093 424.791 118.874 425.139 117.622 425.187C117.011 425.249 116.293 424.384 115.683 424.443C114.882 424.681 114.134 425.055 113.477 425.546C112.321 421.703 112.38 421.55 107.833 420.09C105.11 419.215 104.545 416.697 102.63 415.114L101.315 417.755C100.621 417.079 99.4698 416.472 99.4698 415.868C99.5044 408.319 99.4975 408.149 95.838 403.626C93.7741 407.039 97.7284 409.014 97.9435 412.351C96.9653 412.208 95.5154 412.315 95.3315 411.92C93.618 407.986 90.9991 404.26 93.6873 399.548C94.5198 398.082 94.6725 397.315 96.5456 397.282C97.7851 397.146 98.966 396.709 99.9727 396.015C102.637 394.428 105.207 392.701 108.058 390.872L109.182 392.43C111.43 393.906 113.775 389.932 114.15 394.062C114.257 395.238 117.049 392.43 117.049 395.512C117.049 396.701 119.37 397.892 120.539 398.993L119.314 401.974L120.31 402.627L122.218 399.215C123.418 401.138 124.119 402.252 125.034 403.711L121.819 407.737Z" fill="#2FACB2"/>
<path d="M68.9413 584.681L74.5086 586.215C75.0851 585.305 75.3252 584.241 75.1916 583.189C75.0579 582.137 74.558 581.156 73.7698 580.4C76.1285 578.382 77.6999 581.425 80.0135 581.095C80.2251 579.985 80.4575 578.826 80.6899 577.693C82.5006 575.868 84.1344 579.234 86.3232 577.647C88.512 576.06 89.1259 579.531 91.0303 579.933C92.1836 580.365 93.1706 581.117 93.8608 582.088C96.3895 585.007 96.7815 589.135 100.188 591.682C101.003 592.289 100.569 594.382 100.75 596.253C96.9757 594.509 96.7468 600.145 93.1185 598.81C92.0015 600.514 93.056 603.6 88.956 603.969L86.8782 600.645L85.2548 603.838C82.9654 604.351 81.9144 602.49 81.1617 601.308C78.7477 597.459 75.3308 594.254 71.2341 591.995C70.5505 591.679 69.944 591.233 69.453 590.685C68.962 590.137 68.5972 589.499 68.3817 588.812C68.1661 588.124 68.1046 587.402 68.2009 586.691C68.2973 585.98 68.5494 585.295 68.9413 584.681Z" fill="#2FACB2"/>
<path d="M36.1963 416.348L27.6528 422.653H21.9987C19.7961 419.655 19.0815 415.714 15.8348 413.239C15.4983 409.072 12.4319 406.48 9.78525 403.57C8.92154 402.643 9.0915 400.883 8.74463 399.159C9.71588 398.904 10.6802 398.924 11.1728 398.48C16.3481 393.931 21.2321 396.488 25.3322 399.603C28.8361 402.38 31.862 405.652 34.3024 409.301C35.3611 411.53 36.0018 413.916 36.1963 416.351" fill="#2FACB2"/>
</g>
<defs>
<clipPath id="clip0_2_1297">
<rect width="666" height="640" fill="white"/>
</clipPath>
</defs>
</svg>
